<svg width="20" height="20" viewBox="0 0 20 20" fill="none" xmlns="http://www.w3.org/2000/svg">
<mask id="mask0_68_354" style="mask-type:luminance" maskUnits="userSpaceOnUse" x="0" y="0" width="20" height="20">
<path d="M19.8793 0H0V20H19.8793V0Z" fill="white"/>
</mask>
<g mask="url(#mask0_68_354)">
<path d="M19.8793 10.2297C19.8793 9.54989 19.8234 8.86644 19.7041 8.19769H10.139V12.0485H15.6165C15.3891 13.2905 14.6589 14.3892 13.5894 15.0872V17.5858H16.8573C18.7763 15.8442 19.8793 13.2721 19.8793 10.2297Z" fill="#4285F4"/>
<path d="M10.139 20C12.874 20 15.1806 19.1145 16.861 17.5858L13.5932 15.0872C12.684 15.6972 11.5102 16.0426 10.1427 16.0426C7.49712 16.0426 5.25395 14.2825 4.44909 11.9162H1.07687V14.492C2.79838 17.8689 6.30474 20 10.139 20Z" fill="#34A853"/>
<path d="M4.44532 11.9162C4.02053 10.6743 4.02053 9.32944 4.44532 8.08748V5.51169H1.07684C-0.36147 8.33734 -0.36147 11.6664 1.07684 14.492L4.44532 11.9162Z" fill="#FBBC04"/>
<path d="M10.139 3.95722C11.5848 3.93518 12.9821 4.47164 14.0291 5.45641L16.9244 2.60135C15.0911 0.903764 12.6579 -0.0295456 10.139 -0.000150089C6.30472 -0.000150089 2.79838 2.13103 1.07687 5.51152L4.44536 8.08731C5.24648 5.71728 7.49338 3.95722 10.139 3.95722Z" fill="#EA4335"/>
</g>
</svg>
