<svg width="64.822914mm" height="64.822914mm" version="1.1" viewBox="0 0 64.822915 64.822915" xmlns="http://www.w3.org/2000/svg" xmlns:osb="http://www.openswatchbook.org/uri/2009/osb" xmlns:xlink="http://www.w3.org/1999/xlink">
 <defs>
  <linearGradient id="e" x1="29.75" x2="29.75" y1="-28.75" y2="79.25" gradientTransform="matrix(.26458333 0 0 .26458333 88.639306 90.780091)" gradientUnits="userSpaceOnUse">
   <stop stop-color="#2381EF" offset="0"/>
   <stop stop-color="#0F68D0" offset="1"/>
  </linearGradient>
  <linearGradient id="a" x1="50.5" x2="50.5" y2="101" gradientUnits="userSpaceOnUse">
   <stop stop-color="#2381EF" offset="0"/>
   <stop stop-color="#0F68D0" offset="1"/>
  </linearGradient>
  <linearGradient id="d" x1="58.25" x2="58.25" y1="-30.25" y2="77.75" gradientTransform="matrix(.26458333 0 0 .26458333 88.639306 90.780091)" gradientUnits="userSpaceOnUse">
   <stop stop-color="#2381EF" offset="0"/>
   <stop stop-color="#0F68D0" offset="1"/>
  </linearGradient>
  <linearGradient id="c" x1="44.387047" x2="44.387047" y1="-13.881359" y2="87.133896" gradientTransform="matrix(.26458333 0 0 .26458333 88.837951 88.200199)" gradientUnits="userSpaceOnUse" xlink:href="#a"/>
  <linearGradient id="b" x1="50.5" x2="50.5" y2="101" gradientTransform="matrix(.26458333 0 0 .26458333 85.929172 84.392371)" gradientUnits="userSpaceOnUse" xlink:href="#a"/>
 </defs>
 <g transform="translate(-66.879165,-65.342372)">
  <g transform="matrix(2.4257426,0,0,2.4257426,-141.56288,-139.3718)">
   <rect x="85.929169" y="84.392372" width="26.722916" height="26.722916" rx="5.2916665" fill="url(#b)" stroke-width=".264583"/>
   <g transform="translate(-.26318497 -.10366054)" fill="#fff">
    <path d="m104.05128 98.916029c1.31551 0 2.38125-1.065477 2.38125-2.38125s-1.06574-2.38125-2.38125-2.38125-2.38124 1.065477-2.38124 2.38125 1.06574 2.38125 2.38124 2.38125zm0 1.190621c-1.58962 0-4.762495 0.79773-4.762495 2.38126v0.59531a0.59716458 0.59716458 0 0 0 0.59531 0.59531h8.334375a0.59716458 0.59716458 0 0 0 0.59531-0.59531v-0.59531c0-1.58353-3.17315-2.38126-4.7625-2.38126z" stroke-width=".264583"/>
    <path d="m108.21259 88.332491h-17.318033c-1.058333 0-1.924314 0.9525-1.924314 2.116666v12.700003c0 1.16416 0.865981 2.11666 1.924314 2.11666h4.81039v1.05834c0 0.58208 0.433123 1.05833 0.962289 1.05833h5.772684c0.52916 0 0.96202-0.47625 0.96202-1.05833v-1.05834h4.81065c1.05834 0 1.91479-0.9525 1.91479-2.11666l0.01-12.700003c0-1.17475-0.86598-2.116666-1.92432-2.116666zm-0.96202 14.816669h-15.393988c-0.529166 0-0.962025-0.47625-0.962025-1.05834v-10.583329c0-0.582084 0.432859-1.058334 0.962025-1.058334h15.393988c0.52917 0 0.96202 0.47625 0.96202 1.058334v10.583329c0 0.58209-0.43285 1.05834-0.96202 1.05834z" stroke="url(#c)" stroke-width=".529"/>
    <path d="m102.04415 93.770412-0.29236-0.156368v1.09855c0 0.273049 0.1524 0.525462 0.39423 0.655108l1.3917 0.745066c0.22596 0.121709 0.49689 0.121709 0.72258 0h2.7e-4l1.3917-0.745066a0.74586041 0.74586041 0 0 0 0.39423-0.655108v-1.098815l-0.2921 0.156369-1.68169 0.900906h-5.3e-4a0.36327291 0.36327291 0 0 1-0.34607 0h-5.3e-4l-1.68143-0.900906zm1.49596-2.637631-2e-3 7.94e-4 -2.34685 1.255712-7.9e-4 2.65e-4a0.47095833 0.47095833 0 0 0 0 0.829733l7.9e-4 2.65e-4 2.34632 1.255448h2.7e-4c0.22569 0.121708 0.49662 0.121708 0.72231 0h2.7e-4l1.94601-1.041665v1.281906c0 0.263261 0.21775 0.471223 0.47678 0.471223s0.47677-0.207962 0.47677-0.471223v-1.749689c0-0.177006-0.0982-0.331788-0.24738-0.414073l-2e-3 -0.0011-2.65007-1.416844-2e-3 -7.94e-4a0.77628749 0.77628749 0 0 0-0.71833 0z" stroke="url(#d)" stroke-width=".396875"/>
    <path d="m96.51066 100.10665c2.119577 0 3.83645-1.716877 3.83645-3.836454s-1.716873-3.836459-3.83645-3.836459-3.836458 1.716882-3.836458 3.836459 1.716881 3.836454 3.836458 3.836454zm0 1.25678c-1.225021 0-3.04456 0.30533-4.564327 0.91413-0.760148 0.30454-1.461823 0.69136-1.978025 1.16761-0.517789 0.4781-0.865981 1.06363-0.865981 1.75472v0.89297a1.1601979 1.1601979 0 0 0 1.157552 1.15755h12.501561a1.1601979 1.1601979 0 0 0 1.15755-1.15755v-0.89297c0-0.69109-0.34819-1.27662-0.86598-1.75472-0.51594-0.47625-1.21788-0.86307-1.97803-1.16761-1.519759-0.60854-3.339035-0.91413-4.56432-0.91413z" stroke="url(#e)" stroke-width=".529167"/>
   </g>
  </g>
 </g>
</svg>
